<?xml version="1.0" encoding="UTF-8" standalone="no"?> <svg xmlns="http://www.w3.org/2000/svg" viewBox="0 0 64 64"><g id="Layer_26" data-name="Layer 26"><path d="M54.47,30.53a9.53,9.53,0,0,0-5.77-2.75V25.87a1,1,0,0,0-1-1h-40a1,1,0,0,0-1,1V37.24a21,21,0,0,0,12.11,19H12a1,1,0,0,0,0,2H44a1,1,0,0,0,0-2H36.6a21.11,21.11,0,0,0,9.8-9.47C55.38,48.08,60.92,36.89,54.47,30.53ZM53.05,42.64a7.58,7.58,0,0,1-5.79,2.19c1.88-4,1.41-10.59,1.44-15C54.78,30.44,57.49,38.43,53.05,42.64Z"/><path d="M14.4,20.27a1,1,0,0,0,1-1,14.86,14.86,0,0,1,1.07-5.91,16.88,16.88,0,0,0,1.18-6.59,1,1,0,1,0-2,0,15.07,15.07,0,0,1-1.06,5.91,16.67,16.67,0,0,0-1.19,6.59A1,1,0,0,0,14.4,20.27Z"/><path d="M26.59,20.27a1,1,0,0,0,1-1,14.86,14.86,0,0,1,1.07-5.91,16.88,16.88,0,0,0,1.18-6.59,1,1,0,0,0-2,0,14.89,14.89,0,0,1-1.06,5.91,16.85,16.85,0,0,0-1.19,6.59A1,1,0,0,0,26.59,20.27Z"/><path d="M38.79,20.27a1,1,0,0,0,1-1,14.89,14.89,0,0,1,1.06-5.91A16.88,16.88,0,0,0,42,6.77a1,1,0,1,0-2,0A14.89,14.89,0,0,1,39,12.68a16.88,16.88,0,0,0-1.18,6.59A1,1,0,0,0,38.79,20.27Z"/></g></svg>