<?xml version="1.0" encoding="iso-8859-1"?>
<!DOCTYPE svg PUBLIC "-//W3C//DTD SVG 1.1//EN" "http://www.w3.org/Graphics/SVG/1.1/DTD/svg11.dtd">
<svg version="1.1" xmlns="http://www.w3.org/2000/svg" xmlns:xlink="http://www.w3.org/1999/xlink" x="0px" y="0px" width="20" height="20" viewBox="0 0 20 20" xml:space="preserve">
    <g transform="translate(-30 -2000)">
        <g xmlns="http://www.w3.org/2000/svg" xmlns:xlink="http://www.w3.org/1999/xlink" id="tea-mini">
		<path d="M38,2007c0,0-1.709-0.617-1.675-1.805c0.044-1.459,1.808-1.293,3.05-0.473c1.328,0.879,3.836,0.193,3.707-1.609    c-0.128-1.803-1.646-3.113-1.646-3.113s1.072,3.586-0.561,3.33c-1.631-0.258-3.17-2.164-4.819-1.24    c-1.649,0.922-1.577,2.076-1.277,2.807C34.779,2004.896,35.896,2006.957,38,2007z"/>
		<path d="M45.5,2008c-0.172,0-14.5,0-14.5,0s0,10,3,10s5,0,8,0c1.139,0,1.845-1.441,2.283-3.23c0.381,0.143,0.787,0.23,1.217,0.23    c1.933,0,3.5-1.568,3.5-3.5C49,2009.566,47.433,2008,45.5,2008z M45.5,2013c-0.827,0-1.5-0.674-1.5-1.5c0-0.828,0.673-1.5,1.5-1.5    s1.5,0.672,1.5,1.5C47,2012.326,46.327,2013,45.5,2013z"/>
		<rect x="31" y="2019" width="14" height="1"/>
	</g>
	
    </g>
</svg>
